<?xml version="1.0" encoding="utf-8"?>
<!-- Generator: Adobe Illustrator 22.0.0, SVG Export Plug-In . SVG Version: 6.00 Build 0)  -->
<svg version="1.1" id="Icon" xmlns="http://www.w3.org/2000/svg" xmlns:xlink="http://www.w3.org/1999/xlink" x="0px" y="0px"
	 viewBox="0 0 90.3 71.6" style="enable-background:new 0 0 90.3 71.6;" xml:space="preserve">
<style type="text/css">
	.st0{fill:#0061A0;}
	.st1{fill:#0090DA;}
	.st2{fill:#FAFAFA;}
</style>
<path class="st0" d="M54.5,13.7c15.9,0,28.7,12.8,28.8,28.7c0,6.1-1.9,12.1-5.5,17l11.8,11.8H54.5c-15.9,0-28.8-12.9-28.8-28.8
	S38.7,13.7,54.5,13.7L54.5,13.7z"/>
<path class="st1" d="M31.7,0.1c-14.3,0-26,11.6-26,25.9c0,5.5,1.7,10.9,5,15.3L0.1,52h31.6c14.3,0,26-11.6,26-26S46.1,0.1,31.7,0.1z
	"/>
<circle class="st2" cx="41.4" cy="24.1" r="3.8"/>
<circle class="st2" cx="30.6" cy="24.1" r="3.8"/>
<circle class="st2" cx="19.2" cy="24.1" r="3.8"/>
</svg>
