<svg id="Layer_1" data-name="Layer 1" xmlns="http://www.w3.org/2000/svg" viewBox="0 0 41.1 41"><defs><style>.cls-1{fill:#aba8ab;stroke:#aba8ab;stroke-miterlimit:10;}.cls-2{fill:#fff;}</style></defs><title>crop_selected</title><path class="cls-1" d="M36.71,40.41H5.21a4.33,4.33,0,0,1-4.3-4.3V4.71A4.33,4.33,0,0,1,5.21.41h31.5A4.33,4.33,0,0,1,41,4.71v31.5A4.25,4.25,0,0,1,36.71,40.41Z" transform="translate(-0.41 0.09)"/><path class="cls-2" d="M17,14.51h7.8a3.15,3.15,0,0,1,3.3,3v6.9H27v-7a2.12,2.12,0,0,0-2.2-2H17v-.9m.9,11.9a2.92,2.92,0,0,1-3.1-2.7v-8.3h-4.1v-.9h4.1v-3.7h1v12.8a1.91,1.91,0,0,0,2,1.8h13.3v.9H28V30H27v-3.7h-9.1Z" transform="translate(-0.41 0.09)"/></svg>