<svg id="Layer_1" data-name="Layer 1" xmlns="http://www.w3.org/2000/svg" viewBox="0 0 41.1 41"><defs><style>.cls-1{fill:#aba8ab;}.cls-2{fill:none;stroke:#aba8ab;stroke-miterlimit:10;}</style></defs><title>crop</title><path class="cls-1" d="M16.61,14.64h7.8a3.15,3.15,0,0,1,3.3,3v6.9h-1.1v-7a2.12,2.12,0,0,0-2.2-2h-7.8v-.9m.9,11.9a2.92,2.92,0,0,1-3.1-2.7v-8.3h-4.1v-.9h4.1v-3.7h1v12.8a1.91,1.91,0,0,0,2,1.8h13.3v.9h-3.1v3.7h-1v-3.7h-9.1Z" transform="translate(-0.01 -0.04)"/><path class="cls-2" d="M36.31,40.54H4.81a4.33,4.33,0,0,1-4.3-4.3V4.84A4.33,4.33,0,0,1,4.81.54h31.5a4.33,4.33,0,0,1,4.3,4.3v31.5A4.25,4.25,0,0,1,36.31,40.54Z" transform="translate(-0.01 -0.04)"/></svg>