<svg id="Layer_1" data-name="Layer 1" xmlns="http://www.w3.org/2000/svg" viewBox="0 0 20.41 18.32"><defs><style>.cls-1{fill:#c92e2e;}.cls-2{fill:#fff;stroke:#fff;stroke-miterlimit:10;stroke-width:0.3px;}</style></defs><title>tick activated red</title><path class="cls-1" d="M2.07.86H19.79a.6.6,0,0,1,.6.6V18.07a1.11,1.11,0,0,1-1.11,1.11H1.64A1.66,1.66,0,0,1,0,17.53V2.95A2.09,2.09,0,0,1,2.07.86Z" transform="translate(20.39 19.18) rotate(180)"/><polygon class="cls-2" points="16.17 3.81 15.76 3.4 10.36 8.8 4.96 3.4 4.55 3.81 9.95 9.21 4.55 14.61 4.96 15.02 10.36 9.62 15.76 15.02 16.17 14.61 10.77 9.21 16.17 3.81"/><path class="cls-2" d="M16.15,15.47l-.41.4-5.4-5.39-5.4,5.39-.4-.4,5.39-5.4L4.54,4.67l.4-.41,5.4,5.4,5.4-5.4.41.41-5.4,5.4Z" transform="translate(0.02 -0.86)"/></svg>