<?xml version="1.0" encoding="utf-8"?>
<!-- Generator: Adobe Illustrator 22.0.0, SVG Export Plug-In . SVG Version: 6.00 Build 0)  -->
<svg version="1.1" id="Icon" xmlns="http://www.w3.org/2000/svg" xmlns:xlink="http://www.w3.org/1999/xlink" x="0px" y="0px"
	 viewBox="0 0 21.2 19.4" style="enable-background:new 0 0 21.2 19.4;" xml:space="preserve">
<style type="text/css">
	.st0{fill:#0090DA;}
	.st1{fill:#0061A0;}
	.st2{fill:#FFFFFF;}
</style>
<path class="st0" d="M18.3,19.3H3.2c-1.6,0-3-1.3-3-3c0,0,0,0,0,0V0.1h15.1v16.3C15.3,18,16.6,19.3,18.3,19.3
	C18.3,19.3,18.3,19.3,18.3,19.3z"/>
<path class="st1" d="M6.1,16.4v-1.1h15.1v1.1c0,1.6-1.3,3-3,3c0,0,0,0,0,0H3.1C4.7,19.3,6.1,18,6.1,16.4C6.1,16.4,6.1,16.4,6.1,16.4
	z"/>
<rect x="7.2" y="5.5" class="st2" width="1.1" height="3.3"/>
<polygon class="st2" points="7.8,11.9 11.4,8.4 4.1,8.4 "/>
</svg>
