<?xml version="1.0" encoding="utf-8"?>
<!-- Generator: Adobe Illustrator 22.0.0, SVG Export Plug-In . SVG Version: 6.00 Build 0)  -->
<svg version="1.1" id="Icon" xmlns="http://www.w3.org/2000/svg" xmlns:xlink="http://www.w3.org/1999/xlink" x="0px" y="0px"
	 viewBox="0 0 55.6 50.3" style="enable-background:new 0 0 55.6 50.3;" xml:space="preserve">
<style type="text/css">
	.st0{fill:#0090DA;}
	.st1{fill:#0061A0;}
	.st2{fill:#FFFFFF;}
</style>
<title>a_faq_HVR</title>
<path class="st0" d="M14.5,29C7,29,0.8,22.8,0.8,15.3S7,1.6,14.5,1.6c7.6,0,13.7,6.1,13.7,13.7c0,0,0,0,0,0V29H14.5z"/>
<path class="st1" d="M28.2,35.2c0,7.6,6.1,13.7,13.7,13.7s13.7-6.1,13.7-13.7s-6.1-13.7-13.7-13.7H28.2V35.2z"/>
<path class="st2" d="M14.5,8.5c3.5-0.1,6.5,2.7,6.6,6.3c0,0.1,0,0.2,0,0.4c0,1.6-0.5,3.2-1.6,4.4l1.5,1.7l-1.6,1.4l-1.6-1.7
	c-1,0.6-2.2,0.9-3.3,0.9C11,21.9,8.1,19.1,8,15.5c0-0.1,0-0.2,0-0.3c-0.1-3.5,2.6-6.5,6.2-6.6C14.3,8.5,14.4,8.5,14.5,8.5z
	 M14.5,19.4c0.6,0,1.1-0.1,1.6-0.3l-2-2.2l1.7-1.4l2,2.2c0.5-0.8,0.7-1.6,0.7-2.5c0-2.9-2-4.2-4-4.2c-2,0-4,1.4-4,4.2
	S12.6,19.4,14.5,19.4z"/>
<path class="st2" d="M44.4,38.1h-5.2L38.2,41h-2.6l4.9-12.7h2.9L48.1,41h-2.7L44.4,38.1z M40,35.8h3.5L41.8,31L40,35.8z"/>
</svg>
