<svg id="Layer_1" data-name="Layer 1" xmlns="http://www.w3.org/2000/svg" viewBox="0 0 458.25 293.21"><defs><style>.cls-1{fill:#0061a0;}</style></defs><title>googleplus</title><path class="cls-1" d="M160.78,176.85h71.59a91.1,91.1,0,0,1-86.45,60.71c-48.35-.36-88.33-39-90.2-87.35a90.91,90.91,0,0,1,151.94-71,9.85,9.85,0,0,0,13.41,0l26.3-24.74a9.84,9.84,0,0,0,0-14.3A146.06,146.06,0,0,0,149.52,0C68.7-1.55.57,64.72,0,145.56a146.6,146.6,0,0,0,293,9.29c.12-1,.19-33.65.19-33.65H160.78A9.83,9.83,0,0,0,151,131v36A9.83,9.83,0,0,0,160.78,176.85Z" transform="translate(0)"/><path class="cls-1" d="M414.46,124.47V89.3a8.6,8.6,0,0,0-8.61-8.61h-29.6a8.61,8.61,0,0,0-8.61,8.61v35.17H332.47a8.6,8.6,0,0,0-8.61,8.61v29.6a8.6,8.6,0,0,0,8.61,8.61h35.17v35.18a8.61,8.61,0,0,0,8.61,8.6h29.6a8.6,8.6,0,0,0,8.61-8.6V171.29h35.18a8.61,8.61,0,0,0,8.61-8.61v-29.6a8.61,8.61,0,0,0-8.61-8.61Z" transform="translate(0)"/></svg>