<svg id="Layer_1" data-name="Layer 1" xmlns="http://www.w3.org/2000/svg" viewBox="0 0 86 67.74"><defs><style>.cls-1{fill:#595b5d;}</style></defs><title>image_stack_empty_state</title><path class="cls-1" d="M5.06,3.72a5,5,0,0,0-5,5v54a5,5,0,0,0,5,5h76a5,5,0,0,0,5-5v-54a5,5,0,0,0-5-5Zm0,2h76a3,3,0,0,1,3,3v41.8L66.76,35a1,1,0,0,0-1.3,0l-15.2,14.3L30,26.12a.81.81,0,0,0-.9-.3.76.76,0,0,0-.5.2L2.06,50.32V8.62A2.93,2.93,0,0,1,5.06,5.72Zm49,7.9a8,8,0,1,0,8,8A8,8,0,0,0,54.06,13.62Zm0,2.1a6,6,0,0,1,6,6,6,6,0,0,1-12,0A6,6,0,0,1,54.06,15.72Zm-25,12.4,20.3,23.2a1,1,0,0,0,1.4.1h0L66.06,37l18,16.1v9.6a3,3,0,0,1-3,3h-76a3,3,0,0,1-3-3v-9.6Z" transform="translate(-0.06 0.02)"/><path class="cls-1" d="M76.06,2h-66a1,1,0,0,1-1-1h0a1,1,0,0,1,1-1h66a1,1,0,0,1,1,1h0A.94.94,0,0,1,76.06,2Z" transform="translate(-0.06 0.02)"/></svg>