<svg id="Capa_1" data-name="Capa 1" xmlns="http://www.w3.org/2000/svg" viewBox="0 0 512 489.25"><defs><style>.cls-1{fill:#0061a0;}</style></defs><title>Linkedin</title><path id="LinkedIn" class="cls-1" d="M512,300.83V490.12H402.26V313.51c0-44.37-15.87-74.64-55.59-74.64-30.32,0-48.37,20.4-56.31,40.14-2.89,7.06-3.64,16.88-3.64,26.76V490.12H177S178.43,191,177,160H286.71V206.8c-.22.35-.51.73-.72,1.07h.72V206.8c14.58-22.46,40.63-54.55,98.92-54.55C457.86,152.25,512,199.44,512,300.83ZM62.12.88C24.56.88,0,25.51,0,57.9,0,89.59,23.85,115,60.66,115h.73c38.28,0,62.09-25.38,62.09-57.07C122.76,25.51,99.67.88,62.12.88ZM6.52,490.12H116.25V160H6.52Z" transform="translate(0 -0.88)"/></svg>