<svg id="Layer_1" data-name="Layer 1" xmlns="http://www.w3.org/2000/svg" viewBox="0 0 102.36 20"><defs><style>.cls-1{fill:#fdbf12;}.cls-1,.cls-2,.cls-3{fill-rule:evenodd;}.cls-2{fill:#a11c3f;}.cls-3{fill:#007dc2;}</style></defs><title>logo</title><path class="cls-1" d="M8.56,20.16H8.49C2.7,20-.12,15.69,0,11.84c0,0,.07-1.72.07-1.72-.1,4.43,2.61,8.47,8.4,8.57h93.89v1.47Z" transform="translate(-0.02 -0.16)"/><path class="cls-2" d="M1,.16V8.87a7.87,7.87,0,0,0,7.93,7.68h8.89V.16Z" transform="translate(-0.02 -0.16)"/><path class="cls-1" d="M12.52,2.09h3.15V14.84H12.52V11.26c-2.78,1-5.35,1.11-7.71-1.25-1-1-1.54-2.42-1.32-4.89a9.55,9.55,0,0,0-.57-3H5.7C7,4.19,5.31,6.8,7.31,8.51a3.24,3.24,0,0,0,5.21-2.28ZM9.38,3.37A2.7,2.7,0,1,1,6.7,6.05,2.71,2.71,0,0,1,9.38,3.37Z" transform="translate(-0.02 -0.16)"/><path class="cls-2" d="M9.77,7.37l.15.18a6,6,0,0,1-.68.54,1.18,1.18,0,0,1-.54.25.17.17,0,0,1-.14-.08.16.16,0,0,1-.07-.14,1.53,1.53,0,0,1,.1-.46l.25-.72a4.27,4.27,0,0,0,.22-.68c.14-.39.21-.57.21-.6s0-.07-.07-.07A.24.24,0,0,0,9,5.66c-.1.07-.18.1-.21.18l-.11.1L8.59,5.8a5.8,5.8,0,0,1,.68-.61A1.14,1.14,0,0,1,9.77,5c.11,0,.15,0,.15.11a2.79,2.79,0,0,1-.08.35,5.67,5.67,0,0,0-.21.68c-.11.25-.14.43-.21.57s-.11.36-.18.57a2.56,2.56,0,0,0-.11.4c0,.07,0,.1.07.1a1,1,0,0,0,.47-.32.13.13,0,0,0,.07,0l0,0" transform="translate(-0.02 -0.16)"/><path class="cls-2" d="M10,3.94a.31.31,0,0,1,.21.11.44.44,0,0,1,.07.21.61.61,0,0,1-.1.36.36.36,0,0,1-.29.14.29.29,0,0,1-.21-.1.49.49,0,0,1-.08-.25.43.43,0,0,1,0-.22c0-.07.11-.1.14-.18A.63.63,0,0,1,10,3.94" transform="translate(-0.02 -0.16)"/><path class="cls-3" d="M80.56,11.16h3.21v2.25H77.92V3.19h2.64ZM51.67,3.34h2.57l2,5.39,2.18-5.39h2.61l1.5,10.1H60L59.2,7.62h0l-2.4,5.82h-1L53.42,7.62h0l-.82,5.82H50ZM86,1.62a1.57,1.57,0,1,0,1.57,1.57A1.59,1.59,0,0,0,86,1.62Zm14,7h0a1.43,1.43,0,0,0-1.46-1.11A1.41,1.41,0,0,0,97,8.66Zm2.36,1.5H97a1.41,1.41,0,0,0,1.61,1.57,1.28,1.28,0,0,0,1.21-.64h2.43a3.44,3.44,0,0,1-3.64,2.46c-2.39,0-4.18-1.36-4.18-3.82a4,4,0,0,1,7.93.14Zm-10,3.21H89.85V8.55H88.56V6.44h1.29V6.09a3.3,3.3,0,0,1,.71-2.54A3.09,3.09,0,0,1,93,2.41a2.4,2.4,0,0,1,1.11.25V4.87a2.06,2.06,0,0,0-.9-.25c-.68,0-.89.39-.89,1.22v.6h1.54V8.55H92.31Zm-7.61,0h2.57V5.73H84.7Zm-9.11,0H73V8.34H71.74V6.23H73V4.09h2.57V6.23h1.26V8.34H75.59ZM68.74,8.66h0a1.47,1.47,0,0,0-1.47-1.11,1.42,1.42,0,0,0-1.5,1.11Zm2.36,1.5H65.74a1.4,1.4,0,0,0,1.57,1.57,1.32,1.32,0,0,0,1.25-.64H71a3.49,3.49,0,0,1-3.64,2.46c-2.4,0-4.18-1.36-4.18-3.82a3.7,3.7,0,0,1,4-3.86,3.65,3.65,0,0,1,3.93,4ZM30.52,13.62V8.69s0-2.68,2.29-3.32a3.65,3.65,0,0,1,4.25,1.39A5.23,5.23,0,0,1,37.59,9c0,.39,0,4.64,0,4.64H34.92V9S35,7.8,34,7.8s-.85,1-.85,1v4.75ZM21,17.12H23.7V9.84A2.43,2.43,0,0,1,24.49,8a1.33,1.33,0,0,1,.78-.25A1.52,1.52,0,0,1,26,7.8a1.74,1.74,0,0,1,1,1,2,2,0,0,1,0,1.33,2.07,2.07,0,0,1-1.18,1A3.42,3.42,0,0,1,24.34,11v2.54a5.21,5.21,0,0,0,3.36-.29,4.33,4.33,0,0,0,2.11-2.67,4.13,4.13,0,0,0,.11-1.29,4.23,4.23,0,0,0-3-3.93,5,5,0,0,0-3.57.25,3.51,3.51,0,0,0-2,1.89A5,5,0,0,0,21,9.09c0,.57,0,1.14,0,1.53ZM38.27,2.34h2.57V9.59a2.48,2.48,0,0,0,.75,1.85,1.67,1.67,0,0,0,.75.29,2,2,0,0,0,.68-.11,1.54,1.54,0,0,0,1-1,1.94,1.94,0,0,0,0-1.32,1.73,1.73,0,0,0-1.1-1,2.41,2.41,0,0,0-1.47.1V5.91a4.56,4.56,0,0,1,3.18.25,4.13,4.13,0,0,1,2,2.71,4,4,0,0,1,.11,1.29,4.23,4.23,0,0,1-2.82,3.93,5,5,0,0,1-3.4-.25,4,4,0,0,1-1.93-1.93,5.07,5.07,0,0,1-.28-1.57c0-.54-.07-1.15-.07-1.54C38.24,6.44,38.27,2.34,38.27,2.34Z" transform="translate(-0.02 -0.16)"/></svg>