<svg id="Layer_1" data-name="Layer 1" xmlns="http://www.w3.org/2000/svg" viewBox="0 0 525.02 102.58"><defs><style>.cls-1{fill:#fdbf12;}.cls-1,.cls-2,.cls-3{fill-rule:evenodd;}.cls-2{fill:#a11c3f;}.cls-3{fill:#007dc2;}</style></defs><title>pnb-metlife-logo</title><path class="cls-1" d="M84.33,157.27H84c-29.67-.73-44.14-22.9-43.41-42.68,0-.18.37-8.79.37-8.79-.55,22.71,13.37,43.41,43,44H565.54v7.51Z" transform="translate(-40.52 -54.69)"/><path class="cls-2" d="M45.49,54.69v44.7a40.44,40.44,0,0,0,40.67,39.38h45.61V54.69Z" transform="translate(-40.52 -54.69)"/><path class="cls-1" d="M104.66,64.58h16.12V130H104.66V111.66c-14.29,5.31-27.47,5.68-39.56-6.41-5.13-5.31-7.88-12.46-6.78-25.1a47.27,47.27,0,0,0-2.93-15.57H69.67c6.6,10.81-2,24.18,8.25,33,13.92,9.17,26.19-1.83,26.74-11.72Zm-16.12,6.6A13.83,13.83,0,1,1,74.8,84.92,13.72,13.72,0,0,1,88.54,71.18Z" transform="translate(-40.52 -54.69)"/><path class="cls-2" d="M90.56,91.69l.73.92a26,26,0,0,1-3.48,2.75,5.65,5.65,0,0,1-2.75,1.28.93.93,0,0,1-.73-.37,1,1,0,0,1-.37-.73,8.5,8.5,0,0,1,.55-2.38L85.8,89.5A28.52,28.52,0,0,0,86.89,86c.74-2,1.1-2.94,1.1-3.12,0-.37-.18-.37-.36-.37a1.18,1.18,0,0,0-.92.37c-.55.37-.91.55-1.1.92l-.55.55-.55-.74A25.5,25.5,0,0,1,88,80.52a5.56,5.56,0,0,1,2.57-1.1c.55,0,.73.18.73.55a13.92,13.92,0,0,1-.37,1.83,27.19,27.19,0,0,0-1.09,3.48c-.56,1.28-.74,2.2-1.1,2.93a26,26,0,0,1-.92,2.93,11.12,11.12,0,0,0-.55,2c0,.36,0,.55.37.55A5.31,5.31,0,0,0,90,92.06a.56.56,0,0,0,.36-.18l.19-.19" transform="translate(-40.52 -54.69)"/><path class="cls-2" d="M91.66,74.11a1.59,1.59,0,0,1,1.1.55,2.59,2.59,0,0,1,.36,1.1,3.07,3.07,0,0,1-.55,1.83,1.88,1.88,0,0,1-1.46.73,1.55,1.55,0,0,1-1.1-.55,2.65,2.65,0,0,1-.37-1.28,2.25,2.25,0,0,1,.19-1.1c.18-.37.54-.55.73-.92a2.59,2.59,0,0,1,1.1-.36" transform="translate(-40.52 -54.69)"/><path class="cls-3" d="M453.62,111.11h16.49v11.54h-30V70.26h13.55ZM305.43,71h13.19l10.44,27.66L340.23,71h13.38l7.69,51.84H347.92L344.08,93h-.18l-12.28,29.85h-5.31L314.4,93h-.18L310,122.83H296.64Zm176-8.79a8.06,8.06,0,1,0,8.06,8.06A8.14,8.14,0,0,0,481.46,62.2Zm71.63,36.09h0a7.36,7.36,0,0,0-7.51-5.68c-3.85,0-7,2-7.7,5.68ZM565.18,106H537.7c0,5.32,2.75,8.06,8.24,8.06a6.62,6.62,0,0,0,6.23-3.29h12.46c-2,8.79-10.26,12.63-18.69,12.63-12.27,0-21.43-7-21.43-19.6C524.51,91.51,532.94,84,545,84c12.82,0,20.15,8.06,20.15,20.52Zm-51.29,16.49H501.25V97.74h-6.6V86.93h6.6V85.1c0-5.13,0-8.79,3.66-13a15.89,15.89,0,0,1,12.45-5.86,12.4,12.4,0,0,1,5.69,1.28V78.87a10.21,10.21,0,0,0-4.58-1.28c-3.48,0-4.58,2-4.58,6.23v3.11h7.87V97.74h-7.87Zm-39,.18h13.19V83.27H474.87Zm-46.71,0H415v-26h-6.59V85.83H415v-11h13.19v11h6.41V96.64h-6.41ZM393,98.29h0a7.5,7.5,0,0,0-7.51-5.68c-3.85,0-7,2-7.7,5.68ZM405.08,106H377.6c0,5.32,2.75,8.06,8.06,8.06,2.93,0,4.95-.91,6.41-3.29h12.46c-2,8.6-10.26,12.63-18.69,12.63-12.27,0-21.43-7-21.43-19.6,0-12.27,8.43-19.78,20.52-19.78,12.82,0,20.15,7.88,20.15,20.52ZM197,123.75V98.47s.18-13.74,11.72-17c11.54-3.49,19.6,3.11,21.8,7.14,2.19,3.85,2.74,9.52,2.74,11.36-.18,2,0,23.81,0,23.81H219.52V100.12s.18-6.23-4.58-6.23-4.4,5.31-4.4,5.31v24.37Zm-49.1,17.95H162V104.33s-.19-6.59,4-9.52a7,7,0,0,1,4-1.29,7.81,7.81,0,0,1,3.66.37,8.87,8.87,0,0,1,5.31,5c.37.91,1.29,4.21.19,6.78a10.49,10.49,0,0,1-6.05,5.31,17.31,17.31,0,0,1-7.88-.55v13s9.16,2.57,17.22-1.46a22.16,22.16,0,0,0,10.81-13.74,20.64,20.64,0,0,0,.55-6.6c-.55-7.14-3.85-16.48-15.2-20.14-6.6-2.2-13.19-.92-18.32,1.28-5.86,2.38-9,6-10.44,9.71a24.67,24.67,0,0,0-1.83,8.06c-.19,2.93-.19,5.86-.19,7.87Zm88.84-75.83h13.19v37.18s-.18,6.6,3.85,9.53a8.39,8.39,0,0,0,3.85,1.46,9.85,9.85,0,0,0,3.48-.55,7.81,7.81,0,0,0,4.94-4.94c.37-.74,1.29-4.22.19-6.78a9,9,0,0,0-5.68-5.13,12.24,12.24,0,0,0-7.51.55v-13s8.79-2.74,16.3,1.29A21.17,21.17,0,0,1,279.6,99.39a20.15,20.15,0,0,1,.55,6.59c-.55,7.15-3.66,16.49-14.47,20.15-6.05,2-12.46.73-17.41-1.28a19.87,19.87,0,0,1-9.89-9.89,25.39,25.39,0,0,1-1.46-8.06c-.19-2.75-.37-5.86-.37-7.88C236.55,86.93,236.73,65.87,236.73,65.87Z" transform="translate(-40.52 -54.69)"/></svg>