<svg id="Layer_1" data-name="Layer 1" xmlns="http://www.w3.org/2000/svg" viewBox="0 0 41.1 41.1"><defs><style>.cls-1{fill:#aba8ab;stroke:#aba8ab;stroke-miterlimit:10;}.cls-2{fill:#fff;}</style></defs><title>rotate_selected</title><path class="cls-1" d="M36.37,40.64H4.87a4.33,4.33,0,0,1-4.3-4.3V4.84A4.33,4.33,0,0,1,4.87.54h31.5a4.33,4.33,0,0,1,4.3,4.3v31.5A4.47,4.47,0,0,1,36.37,40.64Z" transform="translate(-0.07 -0.04)"/><path class="cls-2" d="M13.77,18.24h7.8a2.65,2.65,0,0,1,2.6,2.6v7.8a2.65,2.65,0,0,1-2.6,2.6h-7.8a2.65,2.65,0,0,1-2.6-2.6v-7.8A2.52,2.52,0,0,1,13.77,18.24Zm8.6,2.6a.9.9,0,0,0-.9-.9h-7.8a.9.9,0,0,0-.9.9v7.8a.9.9,0,0,0,.9.9h7.8a.9.9,0,0,0,.9-.9Z" transform="translate(-0.07 -0.04)"/><path class="cls-2" d="M17.27,13.14a8.19,8.19,0,0,1,10.3,1.2,8.33,8.33,0,0,1,1.2,10.3.87.87,0,0,1-1.5-.9,6.59,6.59,0,0,0-9.1-9.1.93.93,0,0,1-1.2-.3.9.9,0,0,1-.1-.5C16.77,13.54,17,13.34,17.27,13.14Z" transform="translate(-0.07 -0.04)"/><path class="cls-2" d="M15.77,13.84l1.4-3.3a1.08,1.08,0,0,1,1.2-.5,1.08,1.08,0,0,1,.5,1.2l-1,2.5,2.5,1a1.08,1.08,0,0,1,.5,1.2,1.08,1.08,0,0,1-1.2.5L16.37,15a.89.89,0,0,1-.5-.8C15.67,14,15.67,13.94,15.77,13.84Z" transform="translate(-0.07 -0.04)"/></svg>