<svg id="Layer_1" data-name="Layer 1" xmlns="http://www.w3.org/2000/svg" viewBox="0 0 42.84 19.42"><defs><style>.cls-1{fill:#f2f2f2;stroke:#cecece;}.cls-1,.cls-2,.cls-4{stroke-miterlimit:10;}.cls-1,.cls-2{stroke-width:0.5px;}.cls-2{fill:#fff;stroke:#bfbfbf;opacity:0.52;}.cls-3,.cls-4{fill:#8a8989;}.cls-4{stroke:#8a8989;stroke-width:0.3px;}</style></defs><title>tick and cross unselected</title><path class="cls-1" d="M2.59.25H41a1.59,1.59,0,0,1,1.59,1.59v15a2.34,2.34,0,0,1-2.34,2.34H2.59A2.34,2.34,0,0,1,.25,16.83V2.59A2.34,2.34,0,0,1,2.59.25Z"/><line class="cls-2" x1="21.42" y1="3.96" x2="21.42" y2="15.46"/><polygon class="cls-3" points="18.87 3.68 8.31 14.23 3.67 9.59 2.92 10.35 8.31 15.74 19.62 4.43 18.87 3.68"/><polygon class="cls-4" points="38.13 4.31 37.72 3.9 32.32 9.3 26.92 3.9 26.52 4.31 31.91 9.71 26.52 15.11 26.92 15.52 32.32 10.12 37.72 15.52 38.13 15.11 32.73 9.71 38.13 4.31"/><path class="cls-4" d="M38.29,15.47l-.41.4-5.4-5.39-5.39,5.39-.41-.4,5.4-5.4-5.4-5.4.41-.41,5.39,5.4,5.4-5.4.41.41-5.4,5.4Z" transform="translate(-0.16 -0.36)"/></svg>