<svg id="Layer_1" data-name="Layer 1" xmlns="http://www.w3.org/2000/svg" viewBox="0 0 5.6 4.5"><defs><style>.cls-1{fill:#0061a0;}</style></defs><title>Twitter</title><path class="cls-1" d="M5.62.5a1.45,1.45,0,0,1-.7.2,1.47,1.47,0,0,0,.5-.6c-.2.1-.5.2-.7.3a1.27,1.27,0,0,0-.9-.4,1.2,1.2,0,0,0-1.2,1.1v.3A3.13,3.13,0,0,1,.22.2,1.42,1.42,0,0,0,0,.8a1.23,1.23,0,0,0,.5,1A4.33,4.33,0,0,1,0,1.7H0a.6.6,0,0,0,.1.4,2.07,2.07,0,0,0,1,.6H.62a1.17,1.17,0,0,0,1.1.8A2.39,2.39,0,0,1,.32,4H0a3.45,3.45,0,0,0,1.8.5A3.26,3.26,0,0,0,5,1.9a1.7,1.7,0,0,0,.1-.7V1.1a2.65,2.65,0,0,0,.5-.6Z" transform="translate(-0.02 0)"/></svg>