<svg id="Layer_1" data-name="Layer 1" xmlns="http://www.w3.org/2000/svg" viewBox="0 0 5.68 4.31"><defs><style>.cls-1{fill:#0061a0;}.cls-2{fill:#fff;}</style></defs><title>Youtube</title><path class="cls-1" d="M5.63.93A1.44,1.44,0,0,0,5.4.32.77.77,0,0,0,4.83.07C4,0,2.84,0,2.84,0h0S1.65,0,.85.07A.81.81,0,0,0,.28.32,1.38,1.38,0,0,0,.06.93a9.62,9.62,0,0,0-.06,1v.46a9.3,9.3,0,0,0,.06,1A1.53,1.53,0,0,0,.28,4a1,1,0,0,0,.63.26c.45,0,1.93.06,1.93.06s1.2,0,2-.07A.81.81,0,0,0,5.4,4a1.44,1.44,0,0,0,.23-.61s0-.5,0-1V1.93c0-.5,0-1,0-1" transform="translate(0 0)"/><polygon class="cls-2" points="2.16 1.17 2.16 3.29 4.02 2.25 2.16 1.17"/></svg>